<svg width="261" height="228" viewBox="0 0 261 228" fill="none" xmlns="http://www.w3.org/2000/svg">
<rect x="132" y="198" width="30" height="30" fill="#799CFC"/>
<rect x="165" y="198" width="30" height="30" fill="#799CFC"/>
<rect x="198" y="198" width="30" height="30" fill="#799CFC"/>
<rect x="231" y="198" width="30" height="30" fill="#799CFC"/>
<rect x="33" y="198" width="30" height="30" fill="#799CFC"/>
<rect x="66" y="198" width="30" height="30" fill="#799CFC"/>
<rect x="99" y="198" width="30" height="30" fill="#799CFC"/>
<rect x="132" y="165" width="30" height="30" fill="#ABC1FD"/>
<rect x="165" y="165" width="30" height="30" fill="#ABC1FD"/>
<rect x="198" y="165" width="30" height="30" fill="#ABC1FD"/>
<rect x="33" y="165" width="30" height="30" fill="#ABC1FD"/>
<rect x="66" y="165" width="30" height="30" fill="#ABC1FD"/>
<rect x="132" y="132" width="30" height="30" fill="#ABC1FD"/>
<path d="M165 132H195V162H165V132Z" fill="#ABC1FD"/>
<rect x="33" y="132" width="30" height="30" fill="#ABC1FD"/>
<rect x="99" y="165" width="30" height="30" fill="#ABC1FD"/>
<rect y="198" width="30" height="30" fill="#799CFC"/>
<rect y="165" width="30" height="30" fill="#ABC1FD"/>
<rect x="66" y="132" width="30" height="30" fill="#ABC1FD"/>
<rect x="33" y="99" width="30" height="30" fill="#CAD8FE"/>
<rect x="132" y="99" width="30" height="30" fill="#CAD8FE"/>
<rect x="165" y="99" width="30" height="30" fill="#CAD8FE"/>
<rect x="132" y="66" width="30" height="30" fill="#CAD8FE"/>
<rect x="165" y="66" width="30" height="30" fill="#CAD8FE"/>
<rect x="132" y="33" width="30" height="30" fill="#CAD8FE"/>
<rect x="132" width="30" height="30" fill="#DBE4FE"/>
</svg>
